<?xml version="1.0" standalone="no"?>
<!DOCTYPE svg PUBLIC "-//W3C//DTD SVG 20010904//EN"
 "http://www.w3.org/TR/2001/REC-SVG-20010904/DTD/svg10.dtd">
<svg version="1.0" xmlns="http://www.w3.org/2000/svg"
 width="180.000000pt" height="180.000000pt" viewBox="0 0 180.000000 180.000000"
 preserveAspectRatio="xMidYMid meet">
<metadata>
Created by potrace 1.11, written by Peter Selinger 2001-2013
</metadata>
<g transform="translate(0.000000,180.000000) scale(0.100000,-0.100000)"
fill="#000000" stroke="none">
<path d="M0 900 l0 -900 149 0 149 0 12 72 c14 82 9 153 -15 218 -34 93 -36
118 -19 214 22 126 25 231 8 264 -8 15 -14 39 -14 54 0 15 -5 30 -11 33 -6 4
-8 13 -5 21 7 18 -31 44 -65 44 -29 0 -100 48 -123 82 -13 20 -13 32 -2 88 32
152 99 244 220 304 73 36 99 62 72 72 -8 3 -12 14 -9 25 4 14 14 19 41 19 37
0 61 21 62 53 0 10 8 18 23 19 32 2 40 1 60 -7 12 -5 17 -2 17 9 0 20 26 21
34 1 8 -21 33 -19 39 4 5 20 48 33 69 20 21 -14 77 -10 101 5 12 8 58 18 102
21 44 3 104 11 132 17 46 10 55 9 71 -5 12 -11 36 -17 71 -17 60 0 101 -23
124 -69 14 -27 13 -30 -12 -49 -22 -17 -24 -22 -12 -33 12 -12 13 -11 8 3 -3
10 -2 20 2 23 11 6 58 -31 72 -57 17 -31 2 -34 -22 -5 -11 15 -25 27 -31 27
-6 0 -4 -8 5 -18 9 -10 14 -27 11 -38 -6 -23 70 -184 88 -184 6 0 8 10 4 25
-4 14 -3 25 2 25 17 0 95 -84 109 -117 20 -50 32 -122 21 -129 -9 -6 -6 -28 8
-76 4 -14 -1 -18 -20 -18 -14 0 -37 -11 -52 -25 -29 -27 -59 -33 -67 -12 -4
11 -19 -3 -49 -47 -5 -8 -14 -7 -28 2 -11 7 -26 10 -33 6 -7 -4 -9 -4 -6 0 3
3 -9 23 -28 42 -25 27 -31 39 -23 49 15 18 2 42 -27 50 -22 5 -25 10 -19 36 3
17 0 45 -9 65 -11 27 -20 34 -42 34 -21 0 -25 3 -13 10 13 8 13 11 1 22 -8 7
-11 8 -8 2 4 -8 -9 -10 -42 -6 -47 4 -48 3 -65 -32 -10 -21 -14 -45 -10 -61 4
-15 2 -25 -5 -25 -6 0 -11 -8 -11 -18 0 -23 54 -64 74 -56 11 4 13 0 9 -15 -4
-17 -1 -21 20 -21 41 0 91 -31 110 -68 19 -37 22 -62 6 -62 -13 0 -39 25 -39
39 0 12 -48 46 -55 39 -7 -6 47 -62 79 -84 16 -10 28 -29 32 -50 7 -38 -2 -57
-16 -34 -8 12 -10 11 -10 -7 0 -28 -10 -53 -21 -53 -5 0 -9 8 -9 19 0 30 -21
81 -31 75 -6 -3 -6 -11 -1 -17 7 -10 8 -27 3 -80 -1 -5 -10 -6 -20 -2 -15 4
-20 0 -23 -16 -4 -29 -28 -37 -28 -10 0 19 -11 25 -47 24 -7 0 -12 2 -11 6 2
19 -4 29 -23 34 -18 5 -19 10 -12 44 18 89 4 118 -60 128 -23 4 -44 11 -47 15
-3 4 -25 4 -49 1 -35 -5 -48 -12 -62 -36 -34 -57 -17 -111 48 -152 41 -27 47
-28 63 -8 16 20 41 20 34 0 -4 -8 -1 -15 6 -15 17 0 6 -25 -11 -26 -8 0 -22 4
-32 9 -28 13 -80 -11 -71 -32 4 -9 10 -40 12 -69 4 -60 22 -61 22 -1 0 70 31
103 50 54 5 -14 16 -25 24 -25 35 0 48 -88 21 -138 -8 -15 -26 -38 -40 -51
-14 -13 -25 -27 -25 -31 0 -10 59 5 97 25 37 19 46 19 67 -4 11 -12 25 -16 42
-13 30 6 47 -13 39 -44 -5 -22 -5 -22 45 3 41 20 53 22 71 13 13 -8 24 -8 28
-3 19 30 116 48 105 20 -10 -28 41 -13 53 16 15 33 39 35 46 4 2 -12 8 -30 12
-40 5 -13 2 -17 -15 -17 -11 0 -18 -4 -15 -10 9 -15 51 -12 65 5 10 12 16 13
26 4 20 -17 7 -29 -30 -29 -18 0 -36 -3 -39 -7 -9 -8 22 -43 37 -43 14 0 50
39 59 63 7 19 15 21 37 7 10 -7 12 -12 4 -17 -6 -5 -14 -22 -17 -40 -5 -24 -2
-33 10 -38 14 -5 13 -9 -10 -31 -32 -30 -34 -44 -7 -44 11 0 20 -4 20 -10 0
-17 -40 -11 -70 11 -15 12 -26 27 -24 34 7 17 -12 29 -21 14 -4 -6 -2 -16 4
-22 6 -6 11 -21 11 -34 0 -13 10 -29 25 -39 32 -21 32 -30 -2 -39 -15 -3 -31
-12 -35 -18 -5 -8 -8 -5 -8 8 0 16 -2 17 -10 5 -6 -10 -2 -19 18 -32 23 -15
50 -18 175 -18 l147 0 0 425 c0 397 -1 425 -18 434 -10 5 -24 21 -32 35 -7 14
-19 26 -27 26 -7 0 -13 4 -13 9 0 18 20 22 55 12 l35 -9 0 434 0 434 -900 0
-900 0 0 -900z m1396 492 c15 -9 27 -62 15 -62 -5 0 -13 10 -17 22 -4 13 -14
28 -23 35 -14 11 -14 12 -1 13 8 0 20 -4 26 -8z m93 -122 c23 -23 41 -49 41
-60 0 -10 6 -21 13 -23 9 -4 9 -6 0 -6 -7 -1 -20 11 -30 25 -10 14 -33 44 -52
65 -44 51 -24 50 28 -1z m74 -33 c10 -15 15 -32 11 -38 -7 -12 -73 82 -66 94
5 10 29 -15 55 -56z m-369 -242 c10 -7 15 -19 11 -25 -4 -7 -13 -4 -26 11 -28
33 -20 41 15 14z m171 -605 c-3 -5 -11 -10 -16 -10 -6 0 -7 5 -4 10 3 6 11 10
16 10 6 0 7 -4 4 -10z m132 -42 c-3 -8 -6 -5 -6 6 -1 11 2 17 5 13 3 -3 4 -12
1 -19z m53 2 c0 -5 -4 -10 -10 -10 -5 0 -10 5 -10 10 0 6 5 10 10 10 6 0 10
-4 10 -10z"/>
<path d="M203 1330 c-30 -18 -51 -40 -38 -40 3 0 20 10 38 22 18 13 34 24 36
25 2 2 2 5 0 8 -3 2 -19 -4 -36 -15z"/>
<path d="M1182 1281 c-9 -5 -5 -14 13 -31 13 -12 22 -26 19 -31 -6 -10 35 -49
52 -49 7 0 10 -8 8 -17 -5 -20 11 -51 21 -41 4 3 3 27 0 52 -6 35 -12 46 -25
46 -11 0 -22 12 -28 29 -12 33 -42 54 -60 42z"/>
<path d="M1413 1213 c-15 -5 -17 -23 -4 -23 5 0 11 7 15 15 3 8 4 15 3 14 -1
0 -8 -3 -14 -6z"/>
<path d="M605 1144 c-53 -27 -61 -39 -44 -71 24 -47 50 -65 84 -59 41 8 55 31
53 83 -2 62 -34 78 -93 47z"/>
<path d="M360 1035 c-8 -9 -8 -15 -2 -15 12 0 26 19 19 26 -2 2 -10 -2 -17
-11z"/>
<path d="M1155 800 c3 -5 8 -10 11 -10 2 0 4 5 4 10 0 6 -5 10 -11 10 -5 0 -7
-4 -4 -10z"/>
<path d="M676 649 c-6 -31 13 -69 36 -69 16 0 8 61 -11 81 -18 20 -18 20 -25
-12z"/>
<path d="M798 390 c-6 -38 7 -48 22 -19 10 17 9 24 -3 36 -13 13 -15 11 -19
-17z"/>
<path d="M1270 320 c0 -5 5 -10 11 -10 5 0 7 5 4 10 -3 6 -8 10 -11 10 -2 0
-4 -4 -4 -10z"/>
<path d="M1375 271 c-3 -6 3 -15 14 -20 14 -8 20 -7 24 3 9 24 -24 38 -38 17z"/>
</g>
</svg>
